<?xml version="1.0" encoding="UTF-8" standalone="no"?>
<!-- Created with Inkscape (http://www.inkscape.org/) -->

<svg
   xmlns:dc="http://purl.org/dc/elements/1.1/"
   xmlns:cc="http://creativecommons.org/ns#"
   xmlns:rdf="http://www.w3.org/1999/02/22-rdf-syntax-ns#"
   xmlns:svg="http://www.w3.org/2000/svg"
   xmlns="http://www.w3.org/2000/svg"
   xmlns:sodipodi="http://sodipodi.sourceforge.net/DTD/sodipodi-0.dtd"
   xmlns:inkscape="http://www.inkscape.org/namespaces/inkscape"
   width="166.28006mm"
   height="47.202396mm"
   viewBox="0 0 589.18132 167.25258"
   id="svg2"
   version="1.1"
   inkscape:version="0.91 r13725"
   sodipodi:docname="NanoCount.svg"
   inkscape:export-filename="/home/aleg/Programming/Packages/NanoCount/doc/pictures/NanoCount.png"
   inkscape:export-xdpi="100"
   inkscape:export-ydpi="100">
  <defs
     id="defs4">
    <marker
       inkscape:isstock="true"
       style="overflow:visible"
       id="marker4613"
       refX="0"
       refY="0"
       orient="auto"
       inkscape:stockid="Arrow2Send">
      <path
         transform="matrix(-0.3,0,0,-0.3,0.69,0)"
         d="M 8.7185878,4.0337352 -2.2072895,0.01601326 8.7185884,-4.0017078 c -1.7454984,2.3720609 -1.7354408,5.6174519 -6e-7,8.035443 z"
         style="fill:#000000;fill-opacity:1;fill-rule:evenodd;stroke:#000000;stroke-width:0.625;stroke-linejoin:round;stroke-opacity:1"
         id="path4615"
         inkscape:connector-curvature="0" />
    </marker>
    <marker
       inkscape:isstock="true"
       style="overflow:visible"
       id="marker4545"
       refX="0"
       refY="0"
       orient="auto"
       inkscape:stockid="Arrow2Mend">
      <path
         transform="scale(-0.6,-0.6)"
         d="M 8.7185878,4.0337352 -2.2072895,0.01601326 8.7185884,-4.0017078 c -1.7454984,2.3720609 -1.7354408,5.6174519 -6e-7,8.035443 z"
         style="fill:#000000;fill-opacity:1;fill-rule:evenodd;stroke:#000000;stroke-width:0.625;stroke-linejoin:round;stroke-opacity:1"
         id="path4547"
         inkscape:connector-curvature="0" />
    </marker>
    <marker
       inkscape:isstock="true"
       style="overflow:visible"
       id="marker4455"
       refX="0"
       refY="0"
       orient="auto"
       inkscape:stockid="Arrow2Lend">
      <path
         transform="matrix(-1.1,0,0,-1.1,-1.1,0)"
         d="M 8.7185878,4.0337352 -2.2072895,0.01601326 8.7185884,-4.0017078 c -1.7454984,2.3720609 -1.7354408,5.6174519 -6e-7,8.035443 z"
         style="fill:#000000;fill-opacity:1;fill-rule:evenodd;stroke:#000000;stroke-width:0.625;stroke-linejoin:round;stroke-opacity:1"
         id="path4457"
         inkscape:connector-curvature="0" />
    </marker>
    <marker
       inkscape:stockid="TriangleOutM"
       orient="auto"
       refY="0"
       refX="0"
       id="TriangleOutM"
       style="overflow:visible"
       inkscape:isstock="true">
      <path
         id="path4294"
         d="m 5.77,0 -8.65,5 0,-10 8.65,5 z"
         style="fill:#000000;fill-opacity:1;fill-rule:evenodd;stroke:#000000;stroke-width:1pt;stroke-opacity:1"
         transform="scale(0.4,0.4)"
         inkscape:connector-curvature="0" />
    </marker>
  </defs>
  <sodipodi:namedview
     id="base"
     pagecolor="#ffffff"
     bordercolor="#666666"
     borderopacity="1.0"
     inkscape:pageopacity="0.0"
     inkscape:pageshadow="2"
     inkscape:zoom="1.4"
     inkscape:cx="72.266164"
     inkscape:cy="43.996688"
     inkscape:document-units="px"
     inkscape:current-layer="layer1"
     showgrid="false"
     fit-margin-top="0"
     fit-margin-left="50"
     fit-margin-right="50"
     fit-margin-bottom="0"
     inkscape:window-width="2560"
     inkscape:window-height="1376"
     inkscape:window-x="2048"
     inkscape:window-y="27"
     inkscape:window-maximized="1" />
  <metadata
     id="metadata7">
    <rdf:RDF>
      <cc:Work
         rdf:about="">
        <dc:format>image/svg+xml</dc:format>
        <dc:type
           rdf:resource="http://purl.org/dc/dcmitype/StillImage" />
        <dc:title></dc:title>
      </cc:Work>
    </rdf:RDF>
  </metadata>
  <g
     inkscape:label="Layer 1"
     inkscape:groupmode="layer"
     id="layer1"
     transform="translate(-81.472921,-10.58342)">
    <path
       style="fill:none;stroke:#808080;stroke-width:0.967884;stroke-linecap:square;stroke-linejoin:round"
       d="m 314.76358,65.365104 0.75267,-1.63639 0.75266,2.41881 0.75253,-1.42278 0.75253,3.34346 0.75254,-3.62799 0.7528,0.64011 0.75266,-1.20929 0.75253,-2.70323 0.75253,3.84147 0.75267,-0.64021 0.75253,1.92067 0.7528,-3.84147 0.75239,-0.42686 0.7528,0.99592 0.75253,0 0.75254,1.28057 0.75253,0.28465 0.75266,-0.35581 0.75267,0.21348 0.75253,-0.35568 0.75253,-2.4901 0.7528,-2.7744 0.75266,1.35173 0.75253,3.69927 0.75253,-6.26041 0.75254,1.84975 0.7528,-2.20533 0.75253,-1.42288 0.75266,2.84567 0.75267,2.27648 1.50506,-4.12612 0.7528,0.14221 0.75265,-4.76636 0.75254,-6.18913 0.75253,1.84976 0.75254,-0.14245 0.75266,2.41882 0.75253,4.26833 0.75267,-9.39037 0.75279,4.3395 0.75227,-4.69532 0.7528,9.46165 0.75253,-3.05891 0.75266,-4.12625 0.75267,8.67899 0.75253,-9.74607 0.75253,2.48986 0.7528,-1.56499 1.5052,4.76624 0.75253,-0.6401 0.75253,-1.5651 0.75266,-2.84557 0.75267,5.47774 0.75266,-2.70334 0.75267,5.69122 0.75253,-10.67106 0.75253,1.5651 0.75279,0.64034 0.75227,-2.2766 0.7528,2.48997 0.75267,0.85371 0.75239,9.7462 0.7528,-3.13021 0.75253,-2.41881 0.75267,-1.06709 0.75253,2.77451 0.75253,-1.35174 0.7528,2.48999 0.75253,-1.77847 0.75253,1.28044 0.7528,-10.52862 0.75253,7.75412 0.75253,-0.92476 0.7528,-2.48986 0.75253,-2.91671 0.75267,11.24012 0.75253,0.49778 0.75253,-3.84135 0.75253,-7.04296 0.7528,-0.3557 0.7524,-1.35161 0.75292,13.58766 0.75254,2.13417 0.75253,2.63232 0.75253,-1.20943 0.75253,0.14222 0.75267,3.34369 0.75267,2.77439 0.75253,-6.18924 0.75266,5.19332 0.75267,-6.40262 0.75253,-1.06708 0.75266,-4.05496 0.75253,6.4025 0.75253,2.70347 0.7528,-4.76648 0.75253,1.20941 0.75267,1.63615 0.75267,-4.48183 0.75253,3.3437 0.75266,-0.64035 0.7524,-2.13416 0.7528,-0.64023 0.75266,3.9838 0.75253,-0.28464 0.75253,-1.06697 0.75267,2.56102 0.75253,1.49395 0.7528,-2.48999 0.7524,0.64036 0.7528,-0.28466 0.75253,0.21349 0.75253,-2.48986 0.75253,1.84951 0.7528,0.14245 0.75266,-0.99605 0.75253,1.70732 0.75267,6.82947 0.75253,-5.9046 0.75267,-1.84964 0.75253,-0.42686 0.75253,1.7786 0.7528,-1.28069 0.75239,1.49406 0.75267,-0.0713 0.7528,2.84567 0.75253,-4.19729 0.75253,-0.56918 0.75253,2.48998 0.75253,-3.41485 0.75267,-1.77849 0.75266,5.62008 0.75267,-2.27638 0.75253,1.35162 0.75266,1.99196 0.75253,-3.91265 0.75267,4.3395 0.7528,3.48591 0.75253,0.21336 0.75253,-9.03491 0.75253,7.96784 0.75267,0.21336 0.75266,-3.41462 0.75267,-10.45758 0.75253,0.64023 0.75266,-2.06313 0.75253,15.43731 0.75267,3.77055 0.75253,-5.19333 0.75253,-13.80104 1.50533,7.96761 0.75267,1.70742 0.75266,0.35569 0.75253,-4.05508 0.75253,-6.11796 0.75253,6.9718 0.75253,2.84555 0.75294,0.42686 0.75253,-8.89248 0.75253,-4.05496"
       id="path72006"
       inkscape:connector-curvature="0" />
    <path
       id="path4895"
       style="color:#000000;font-style:normal;font-variant:normal;font-weight:normal;font-stretch:normal;font-size:medium;line-height:normal;font-family:sans-serif;text-indent:0;text-align:start;text-decoration:none;text-decoration-line:none;text-decoration-style:solid;text-decoration-color:#000000;letter-spacing:normal;word-spacing:normal;text-transform:none;direction:ltr;block-progression:tb;writing-mode:lr-tb;baseline-shift:baseline;text-anchor:start;white-space:normal;clip-rule:nonzero;display:inline;overflow:visible;visibility:visible;opacity:1;isolation:auto;mix-blend-mode:normal;color-interpolation:sRGB;color-interpolation-filters:linearRGB;solid-color:#000000;solid-opacity:1;fill:#d5e5ff;fill-opacity:1;fill-rule:evenodd;stroke:#4d4d4d;stroke-width:0.5;stroke-linecap:round;stroke-linejoin:miter;stroke-miterlimit:4;stroke-dasharray:none;stroke-dashoffset:0;stroke-opacity:1;color-rendering:auto;image-rendering:auto;shape-rendering:auto;text-rendering:auto;enable-background:accumulate"
       d="m 299.29327,116.35875 c -0.23103,0.50724 -0.15188,1.11647 -0.0859,1.66993 0.12912,1.08305 0.61627,2.09259 0.93164,3.13672 0.005,0.017 0.01,0.034 0.0156,0.0508 0.005,0.0164 0.0119,0.0325 0.0176,0.0488 0.35967,1.02257 0.71386,2.04716 1.05469,3.07617 0.005,0.0162 0.01,0.0327 0.0156,0.0488 0.006,0.0165 0.0131,0.0325 0.0195,0.0488 0.39543,1.00163 0.7784,2.00814 1.17383,3.00977 0.006,0.0163 0.0126,0.0327 0.0195,0.0488 0.007,0.0158 0.0145,0.0312 0.0215,0.0469 0.0332,0.0739 0.0507,0.15661 0.0977,0.22266 0.38499,0.54137 0.83416,1.13537 1.46094,1.35547 0.62698,0.22016 1.39972,0.16396 1.98828,-0.14453 0.58851,-0.30847 1.05198,-0.91848 1.25,-1.55274 0.16594,-0.5315 0.0113,-1.12517 -0.12109,-1.66601 -0.016,-0.0654 -0.0545,-0.12324 -0.0801,-0.18555 -0.39675,-0.96577 -0.77953,-1.93759 -1.13867,-2.91797 -0.35912,-0.98034 -0.69762,-1.96846 -1.01563,-2.96289 -0.32727,-1.02339 -0.4088,-2.14371 -0.91797,-3.08984 -0.31468,-0.58473 -0.68685,-1.22937 -1.28124,-1.52539 -0.59465,-0.29615 -1.36798,-0.33612 -1.99024,-0.10352 -0.62278,0.2328 -1.15995,0.77975 -1.43554,1.38482 z M 447.07003,58.936104 c -0.58852,0.30845 -1.05198,0.91847 -1.25,1.55273 -0.16594,0.5315 -0.0113,1.12518 0.12109,1.66602 0.016,0.0654 0.0545,0.12324 0.0801,0.18555 0.39675,0.96577 0.77953,1.93759 1.13867,2.91797 0.35912,0.98034 0.69762,1.96846 1.01563,2.96289 0.32727,1.02339 0.4088,2.14371 0.91797,3.08984 0.31468,0.58473 0.68686,1.22937 1.28125,1.52539 0.59464,0.29615 1.36797,0.33612 1.99023,0.10352 0.62278,-0.23279 1.15996,-0.77971 1.43555,-1.38477 0.23103,-0.50724 0.15188,-1.11646 0.0859,-1.66992 -0.12912,-1.08305 -0.61627,-2.09259 -0.93164,-3.13672 -0.005,-0.017 -0.01,-0.034 -0.0156,-0.0508 -0.005,-0.0164 -0.0119,-0.0325 -0.0176,-0.0488 -0.35967,-1.02257 -0.71385,-2.04716 -1.05468,-3.07617 -0.005,-0.0162 -0.01,-0.0327 -0.0156,-0.0488 -0.006,-0.0165 -0.0131,-0.0325 -0.0195,-0.0488 -0.39543,-1.00162 -0.7784,-2.00814 -1.17383,-3.00976 -0.006,-0.0163 -0.0126,-0.0327 -0.0195,-0.0488 -0.007,-0.0158 -0.0145,-0.0312 -0.0215,-0.0469 -0.0332,-0.0739 -0.0507,-0.1566 -0.0977,-0.22265 -0.38499,-0.54137 -0.83417,-1.13536 -1.46094,-1.35547 -0.62698,-0.22018 -1.39973,-0.16403 -1.9883,0.14445 z"
       inkscape:connector-curvature="0" />
    <path
       id="path4893"
       style="color:#000000;font-style:normal;font-variant:normal;font-weight:normal;font-stretch:normal;font-size:medium;line-height:normal;font-family:sans-serif;text-indent:0;text-align:start;text-decoration:none;text-decoration-line:none;text-decoration-style:solid;text-decoration-color:#000000;letter-spacing:normal;word-spacing:normal;text-transform:none;direction:ltr;block-progression:tb;writing-mode:lr-tb;baseline-shift:baseline;text-anchor:start;white-space:normal;clip-rule:nonzero;display:inline;overflow:visible;visibility:visible;opacity:1;isolation:auto;mix-blend-mode:normal;color-interpolation:sRGB;color-interpolation-filters:linearRGB;solid-color:#000000;solid-opacity:1;fill:#00112b;fill-opacity:1;fill-rule:evenodd;stroke:#4d4d4d;stroke-width:0.5;stroke-linecap:round;stroke-linejoin:miter;stroke-miterlimit:4;stroke-dasharray:none;stroke-dashoffset:0;stroke-opacity:1;color-rendering:auto;image-rendering:auto;shape-rendering:auto;text-rendering:auto;enable-background:accumulate"
       d="m 445.53516,127.58454 c -0.50345,0.23797 -0.83421,0.75507 -1.14258,1.21875 -0.03,0.0451 -0.0439,0.0991 -0.0664,0.14844 -0.003,0.007 -0.007,0.0144 -0.01,0.0215 -0.43824,0.91843 -0.87625,1.8373 -1.3418,2.74219 -0.45936,0.89287 -0.91399,1.79 -1.43164,2.65039 -10e-4,0.002 -0.003,0.004 -0.004,0.006 -0.54291,0.8624 -1.0383,1.75383 -1.56054,2.6289 -0.002,0.003 -0.004,0.007 -0.006,0.01 -0.0463,0.0743 -0.11087,0.13906 -0.14258,0.2207 -0.2405,0.61917 -0.49138,1.32001 -0.33203,1.96485 0.15935,0.64482 0.6288,1.2606 1.20898,1.58398 0.58057,0.32359 1.34513,0.37731 1.98438,0.19531 0.53601,-0.15261 0.95025,-0.60597 1.32812,-1.01562 0.062,-0.0672 0.0971,-0.15486 0.14844,-0.23047 0.009,-0.0139 0.0203,-0.0268 0.0293,-0.041 0.009,-0.0145 0.0168,-0.03 0.0254,-0.0449 0.5297,-0.91278 1.08944,-1.80792 1.61914,-2.7207 0.009,-0.0149 0.0169,-0.0299 0.0254,-0.0449 0.008,-0.015 0.0171,-0.0298 0.0254,-0.0449 0.51288,-0.92739 1.01486,-1.86081 1.51172,-2.79688 0.008,-0.0149 0.0157,-0.0299 0.0234,-0.0449 0.008,-0.0156 0.0157,-0.0312 0.0234,-0.0469 0.47135,-0.95446 0.94679,-1.90704 1.40235,-2.86914 0.007,-0.0155 0.0143,-0.0313 0.0215,-0.0469 0.007,-0.0156 0.0145,-0.0312 0.0215,-0.0469 0.0252,-0.0564 0.0615,-0.10944 0.0742,-0.16992 0.13672,-0.64984 0.26854,-1.38222 0.006,-1.99219 -0.26257,-0.61003 -0.8261,-1.1408 -1.45117,-1.36523 -0.62562,-0.22463 -1.38892,-0.15362 -1.98989,0.13044 z M 308.10742,48.457594 c -0.0624,0.0672 -0.10074,0.15333 -0.15039,0.23046 -0.009,0.0143 -0.0182,0.0287 -0.0273,0.043 -0.009,0.0143 -0.0184,0.0285 -0.0273,0.043 -0.55248,0.89945 -1.07344,1.8179 -1.61718,2.72266 -0.009,0.015 -0.0187,0.0296 -0.0273,0.0449 -0.008,0.0147 -0.0155,0.03 -0.0234,0.0449 -0.49726,0.93621 -1.01642,1.86067 -1.51368,2.79688 -0.008,0.0149 -0.0156,0.0299 -0.0234,0.0449 -0.008,0.015 -0.0158,0.0298 -0.0234,0.0449 -0.47989,0.95085 -0.93863,1.91225 -1.40235,2.87109 -0.007,0.0149 -0.0146,0.0298 -0.0215,0.0449 -0.007,0.0162 -0.0143,0.0325 -0.0215,0.0488 -0.0247,0.056 -0.0615,0.1081 -0.0742,0.16797 -0.1381,0.64955 -0.26874,1.38231 -0.006,1.99219 0.26296,0.61038 0.8275,1.14093 1.45312,1.36523 0.62522,0.22416 1.38771,0.15281 1.98828,-0.13085 0.50393,-0.23801 0.83571,-0.75484 1.14454,-1.21876 0.03,-0.0451 0.045,-0.0986 0.0664,-0.14843 0.003,-0.006 0.005,-0.0131 0.008,-0.0195 0.41408,-0.92223 0.8695,-1.8257 1.33203,-2.72461 0.46968,-0.91281 0.9581,-1.81623 1.46485,-2.70899 0.50901,-0.89673 1.05787,-1.77025 1.58203,-2.6582 0.005,-0.008 0.009,-0.0157 0.0137,-0.0234 0.0306,-0.049 0.0745,-0.0908 0.0957,-0.14453 0.24399,-0.6178 0.49163,-1.32007 0.33203,-1.96484 -0.15969,-0.64514 -0.6303,-1.26062 -1.21094,-1.58399 -0.58011,-0.32308 -1.34377,-0.37707 -1.98242,-0.19531 -0.53611,0.15258 -0.94925,0.60707 -1.32842,1.01563 z"
       inkscape:connector-curvature="0" />
    <path
       id="path4891"
       style="color:#000000;font-style:normal;font-variant:normal;font-weight:normal;font-stretch:normal;font-size:medium;line-height:normal;font-family:sans-serif;text-indent:0;text-align:start;text-decoration:none;text-decoration-line:none;text-decoration-style:solid;text-decoration-color:#000000;letter-spacing:normal;word-spacing:normal;text-transform:none;direction:ltr;block-progression:tb;writing-mode:lr-tb;baseline-shift:baseline;text-anchor:start;white-space:normal;clip-rule:nonzero;display:inline;overflow:visible;visibility:visible;opacity:1;isolation:auto;mix-blend-mode:normal;color-interpolation:sRGB;color-interpolation-filters:linearRGB;solid-color:#000000;solid-opacity:1;fill:#aaccff;fill-opacity:1;fill-rule:evenodd;stroke:#4d4d4d;stroke-width:0.5;stroke-linecap:round;stroke-linejoin:miter;stroke-miterlimit:4;stroke-dasharray:none;stroke-dashoffset:0;stroke-opacity:1;color-rendering:auto;image-rendering:auto;shape-rendering:auto;text-rendering:auto;enable-background:accumulate"
       d="m 307.27344,134.16266 c -0.54618,0.3785 -0.93029,1.04147 -1.04883,1.69532 -0.0993,0.54788 0.12487,1.11877 0.32422,1.63867 0.30029,0.78314 0.85471,1.44342 1.28711,2.16211 0.009,0.015 0.0181,0.03 0.0273,0.0449 0.009,0.0144 0.0181,0.0287 0.0273,0.043 0.56963,0.88556 1.14464,1.76766 1.72461,2.64648 0.009,0.0137 0.0182,0.0274 0.0274,0.041 0.01,0.0144 0.0194,0.0288 0.0293,0.043 0.59957,0.86145 1.21505,1.71171 1.82421,2.5664 0.01,0.0137 0.0192,0.0276 0.0293,0.041 0.0101,0.0133 0.0209,0.026 0.0312,0.0391 0.24241,0.3082 0.42252,0.67505 0.7207,0.92969 0.50496,0.43123 1.08488,0.8979 1.7461,0.95898 0.66135,0.0611 1.39675,-0.18115 1.89258,-0.62304 0.49582,-0.44188 0.79755,-1.14556 0.83593,-1.8086 0.0322,-0.55618 -0.26044,-1.09572 -0.52148,-1.58789 -0.17658,-0.33293 -0.46683,-0.59189 -0.69141,-0.89453 -0.59393,-0.80036 -1.1885,-1.60167 -1.73437,-2.43555 -0.004,-0.006 -0.008,-0.0131 -0.0117,-0.0195 -0.54878,-0.87697 -1.14809,-1.72167 -1.69531,-2.59961 -0.43161,-0.69247 -0.70063,-1.50198 -1.25196,-2.10351 -0.44878,-0.48964 -0.96819,-1.02281 -1.61718,-1.16407 -0.6491,-0.14129 -1.40902,0.008 -1.95502,0.38665 z m 128.9375,-92.132806 c -0.49583,0.44186 -0.79756,1.14556 -0.83594,1.80859 -0.0322,0.55618 0.26056,1.09566 0.52148,1.58789 0.1826,0.34448 0.45734,0.63305 0.71485,0.92579 10e-4,10e-4 0.003,0.003 0.004,0.004 0.64704,0.76562 1.17813,1.62252 1.74219,2.45117 0.57451,0.844 1.13221,1.69971 1.67188,2.56641 0.43159,0.69313 0.70037,1.50342 1.25195,2.10547 0.44868,0.48973 0.96819,1.02281 1.61719,1.16406 0.64912,0.14128 1.40906,-0.008 1.95508,-0.38672 0.54617,-0.37851 0.93028,-1.04146 1.04882,-1.69531 0.0993,-0.54788 -0.12487,-1.11877 -0.32422,-1.63867 -0.30028,-0.78314 -0.86607,-1.4367 -1.2871,-2.16211 -0.009,-0.0149 -0.0163,-0.0303 -0.0254,-0.0449 -0.009,-0.0147 -0.0197,-0.0286 -0.0293,-0.043 -0.58377,-0.87564 -1.15513,-1.75953 -1.72461,-2.64453 -0.009,-0.0143 -0.0178,-0.0289 -0.0273,-0.043 -0.009,-0.0139 -0.0195,-0.0273 -0.0293,-0.041 -0.60916,-0.85469 -1.21506,-1.71171 -1.82422,-2.5664 -0.01,-0.0137 -0.0193,-0.0275 -0.0293,-0.041 -0.0102,-0.0138 -0.0207,-0.0274 -0.0312,-0.041 -0.23884,-0.31097 -0.42253,-0.67505 -0.7207,-0.92969 -0.50496,-0.43123 -1.08487,-0.89789 -1.74609,-0.95899 -0.66139,-0.0611 -1.39688,0.18104 -1.89276,0.62294 z"
       inkscape:connector-curvature="0" />
    <path
       id="path4889"
       style="color:#000000;font-style:normal;font-variant:normal;font-weight:normal;font-stretch:normal;font-size:medium;line-height:normal;font-family:sans-serif;text-indent:0;text-align:start;text-decoration:none;text-decoration-line:none;text-decoration-style:solid;text-decoration-color:#000000;letter-spacing:normal;word-spacing:normal;text-transform:none;direction:ltr;block-progression:tb;writing-mode:lr-tb;baseline-shift:baseline;text-anchor:start;white-space:normal;clip-rule:nonzero;display:inline;overflow:visible;visibility:visible;opacity:1;isolation:auto;mix-blend-mode:normal;color-interpolation:sRGB;color-interpolation-filters:linearRGB;solid-color:#000000;solid-opacity:1;fill:#002255;fill-opacity:1;fill-rule:evenodd;stroke:#4d4d4d;stroke-width:0.5;stroke-linecap:round;stroke-linejoin:miter;stroke-miterlimit:4;stroke-dasharray:none;stroke-dashoffset:0;stroke-opacity:1;color-rendering:auto;image-rendering:auto;shape-rendering:auto;text-rendering:auto;enable-background:accumulate"
       d="m 434.1582,145.08844 c -0.57128,0.48306 -0.95087,1.15558 -1.44336,1.71875 -0.65379,0.74761 -1.32023,1.48461 -2.00586,2.20313 -0.003,0.003 -0.007,0.007 -0.01,0.01 -0.7186,0.72348 -1.41782,1.46639 -2.14844,2.17773 -0.33465,0.32582 -0.75431,0.5753 -1.02344,0.95703 -0.38274,0.54288 -0.79356,1.1639 -0.79296,1.82813 6e-4,0.66475 0.31036,1.37513 0.79687,1.82812 0.48616,0.45266 1.21507,0.68784 1.87891,0.66406 0.55651,-0.0199 1.06598,-0.36199 1.53125,-0.66797 0.40447,-0.266 0.70339,-0.66539 1.06054,-0.99218 0.0122,-0.0112 0.025,-0.0218 0.0371,-0.0332 0.012,-0.0114 0.0235,-0.0233 0.0352,-0.0351 0.7341,-0.73794 1.46031,-1.48368 2.19336,-2.22266 0.0117,-0.0118 0.0237,-0.0232 0.0351,-0.0352 0.0114,-0.0121 0.0221,-0.0248 0.0332,-0.0371 0.6985,-0.77384 1.3963,-1.54842 2.10547,-2.3125 0.0116,-0.0125 0.0238,-0.0244 0.0351,-0.0371 0.0108,-0.0121 0.0208,-0.0247 0.0312,-0.0371 0.49314,-0.58699 1.11521,-1.08663 1.47852,-1.76172 0.31481,-0.58498 0.64854,-1.25071 0.56836,-1.91016 -0.0802,-0.65962 -0.47265,-1.32757 -1.00977,-1.71875 -0.53702,-0.39111 -1.28904,-0.5369 -1.94531,-0.43359 -0.55046,0.0866 -1.01553,0.48758 -1.44104,0.84738 z M 321.18555,32.609934 c -0.405,0.26607 -0.71404,0.65545 -1.0625,0.99219 -0.0119,0.0115 -0.0235,0.0235 -0.0352,0.0352 -0.0117,0.0117 -0.0235,0.0234 -0.0352,0.0352 -0.73357,0.73846 -1.45978,1.4842 -2.19335,2.22266 -0.0117,0.0118 -0.0236,0.0233 -0.0352,0.0352 -0.0119,0.0122 -0.0236,0.0246 -0.0352,0.0371 -0.70954,0.76308 -1.40712,1.53721 -2.10547,2.31055 -0.0111,0.0123 -0.0223,0.0246 -0.0332,0.0371 -0.0112,0.0129 -0.0222,0.026 -0.0332,0.0391 -0.49437,0.5853 -1.11558,1.08504 -1.47852,1.75976 -0.31461,0.58487 -0.64686,1.25093 -0.5664,1.91016 0.0805,0.65958 0.47264,1.32757 1.00976,1.71875 0.53702,0.39111 1.28899,0.53658 1.94531,0.43359 0.55033,-0.0864 1.01575,-0.48635 1.44141,-0.8457 0.57975,-0.48944 0.98759,-1.15236 1.46484,-1.74219 0.005,-0.006 0.009,-0.0119 0.0137,-0.0176 0.64636,-0.76668 1.36375,-1.47084 2.02734,-2.22266 0.004,-0.005 0.008,-0.009 0.0117,-0.0137 0.67059,-0.72988 1.37942,-1.42408 2.08984,-2.11524 0.33477,-0.3257 0.75431,-0.5753 1.02344,-0.95703 0.38274,-0.54287 0.7937,-1.16389 0.79297,-1.82812 -7.3e-4,-0.66415 -0.31092,-1.37346 -0.79688,-1.82617 -0.4862,-0.45294 -1.21483,-0.68949 -1.8789,-0.66602 -0.55646,0.0197 -1.06573,0.36214 -1.53109,0.66787 z"
       inkscape:connector-curvature="0" />
    <path
       id="path4887"
       style="color:#000000;font-style:normal;font-variant:normal;font-weight:normal;font-stretch:normal;font-size:medium;line-height:normal;font-family:sans-serif;text-indent:0;text-align:start;text-decoration:none;text-decoration-line:none;text-decoration-style:solid;text-decoration-color:#000000;letter-spacing:normal;word-spacing:normal;text-transform:none;direction:ltr;block-progression:tb;writing-mode:lr-tb;baseline-shift:baseline;text-anchor:start;white-space:normal;clip-rule:nonzero;display:inline;overflow:visible;visibility:visible;opacity:1;isolation:auto;mix-blend-mode:normal;color-interpolation:sRGB;color-interpolation-filters:linearRGB;solid-color:#000000;solid-opacity:1;fill:#80b3ff;fill-opacity:1;fill-rule:evenodd;stroke:#4d4d4d;stroke-width:0.5;stroke-linecap:round;stroke-linejoin:miter;stroke-miterlimit:4;stroke-dasharray:none;stroke-dashoffset:0;stroke-opacity:1;color-rendering:auto;image-rendering:auto;shape-rendering:auto;text-rendering:auto;enable-background:accumulate"
       d="m 318.95117,150.39704 c -0.4391,0.49861 -0.65487,1.23339 -0.61328,1.89648 0.0349,0.55607 0.39019,1.05673 0.70899,1.51367 0.25841,0.37038 0.63437,0.64297 0.95312,0.9629 0.0117,0.0117 0.0233,0.0236 0.0352,0.0351 0.0116,0.0112 0.0234,0.0222 0.0352,0.0332 0.7587,0.71213 1.52361,1.41761 2.28125,2.13086 0.0124,0.0117 0.0246,0.0237 0.0371,0.0352 0.0122,0.0112 0.0246,0.0222 0.0371,0.0332 0.78127,0.68586 1.58201,1.3493 2.36328,2.03516 0.0125,0.0109 0.0244,0.0225 0.0371,0.0332 0.0127,0.0108 0.026,0.0208 0.0391,0.0312 0.62762,0.4995 1.16832,1.1354 1.88477,1.4961 0.593,0.29854 1.2672,0.61369 1.92383,0.51562 0.65748,-0.0982 1.31472,-0.50888 1.6914,-1.05664 0.3762,-0.54708 0.50183,-1.30225 0.38086,-1.95508 -0.10157,-0.54813 -0.51534,-1.00222 -0.88671,-1.41797 -0.52074,-0.58297 -1.23378,-0.96055 -1.83594,-1.45898 -0.77664,-0.64285 -1.54056,-1.30138 -2.29102,-1.97461 -0.73856,-0.66255 -1.46225,-1.34181 -2.17578,-2.03125 -0.004,-0.004 -0.008,-0.008 -0.0117,-0.0117 -0.31413,-0.31608 -0.56827,-0.70457 -0.93945,-0.95117 -0.55383,-0.36796 -1.18692,-0.76157 -1.85156,-0.74219 -0.66379,0.0194 -1.36398,0.34933 -1.80286,0.8477 z M 421.76172,28.326734 c -0.37625,0.54704 -0.50183,1.30224 -0.38086,1.95507 0.10157,0.54813 0.51549,1.00209 0.88672,1.41797 0.52914,0.59279 1.24084,0.99294 1.86523,1.48438 0.006,0.005 0.0118,0.009 0.0176,0.0137 0.75266,0.61676 1.49793,1.24405 2.21094,1.90625 0.003,0.003 0.007,0.007 0.01,0.01 0.74105,0.71598 1.51872,1.3934 2.25977,2.10938 0.004,0.004 0.008,0.008 0.0117,0.0117 0.29411,0.29639 0.53128,0.66125 0.8789,0.89258 0.55356,0.36838 1.18693,0.76156 1.85157,0.74218 0.66374,-0.0194 1.36388,-0.34932 1.80273,-0.84765 0.4391,-0.49861 0.65487,-1.2334 0.61328,-1.89649 -0.0349,-0.55607 -0.39018,-1.05673 -0.70898,-1.51367 -0.25788,-0.36963 -0.63752,-0.63729 -0.95117,-0.96094 -0.0119,-0.0122 -0.023,-0.0252 -0.0352,-0.0371 -0.0119,-0.0116 -0.0249,-0.022 -0.0371,-0.0332 -0.76795,-0.70213 -1.52361,-1.41761 -2.28125,-2.13086 -0.0124,-0.0117 -0.0244,-0.0238 -0.0371,-0.0352 -0.012,-0.0108 -0.0248,-0.0207 -0.0371,-0.0312 -0.79188,-0.67423 -1.58186,-1.35079 -2.36328,-2.03711 -0.0125,-0.011 -0.0244,-0.0225 -0.0371,-0.0332 -0.0127,-0.0108 -0.026,-0.0208 -0.0391,-0.0312 -0.62762,-0.4995 -1.16832,-1.1354 -1.88477,-1.49609 -0.593,-0.29854 -1.26719,-0.61363 -1.92383,-0.51562 -0.65749,0.0981 -1.31487,0.5086 -1.6916,1.05632 z"
       inkscape:connector-curvature="0" />
    <path
       id="path4885"
       style="color:#000000;font-style:normal;font-variant:normal;font-weight:normal;font-stretch:normal;font-size:medium;line-height:normal;font-family:sans-serif;text-indent:0;text-align:start;text-decoration:none;text-decoration-line:none;text-decoration-style:solid;text-decoration-color:#000000;letter-spacing:normal;word-spacing:normal;text-transform:none;direction:ltr;block-progression:tb;writing-mode:lr-tb;baseline-shift:baseline;text-anchor:start;white-space:normal;clip-rule:nonzero;display:inline;overflow:visible;visibility:visible;opacity:1;isolation:auto;mix-blend-mode:normal;color-interpolation:sRGB;color-interpolation-filters:linearRGB;solid-color:#000000;solid-opacity:1;fill:#003380;fill-opacity:1;fill-rule:evenodd;stroke:#4d4d4d;stroke-width:0.5;stroke-linecap:round;stroke-linejoin:miter;stroke-miterlimit:4;stroke-dasharray:none;stroke-dashoffset:0;stroke-opacity:1;color-rendering:auto;image-rendering:auto;shape-rendering:auto;text-rendering:auto;enable-background:accumulate"
       d="m 420.04688,158.31891 c -0.27343,0.13623 -0.48967,0.36546 -0.73829,0.54297 -0.008,0.006 -0.0169,0.0118 -0.0254,0.0176 -0.83263,0.56835 -1.66227,1.14157 -2.50976,1.6875 -0.84878,0.54676 -1.70815,1.07749 -2.57813,1.58984 -0.77537,0.45663 -1.67525,0.73093 -2.35351,1.32227 -0.50123,0.437 -1.04793,0.94369 -1.20508,1.58984 -0.15693,0.64522 -0.0248,1.40794 0.33984,1.96289 0.3649,0.55535 1.01725,0.95715 1.66797,1.0918 0.54545,0.11287 1.12167,-0.0986 1.64649,-0.28516 0.86323,-0.30688 1.60261,-0.88841 2.39648,-1.3457 0.0144,-0.008 0.0287,-0.0169 0.043,-0.0254 0.0143,-0.008 0.0288,-0.0168 0.043,-0.0254 0.88991,-0.53714 1.77312,-1.08536 2.65429,-1.63672 0.0144,-0.009 0.0288,-0.018 0.043,-0.0273 0.0138,-0.009 0.0274,-0.0183 0.041,-0.0274 0.86346,-0.57884 1.72394,-1.16212 2.58789,-1.74023 0.0136,-0.009 0.0275,-0.018 0.041,-0.0273 0.0138,-0.01 0.0274,-0.0195 0.041,-0.0293 0.27397,-0.19825 0.59191,-0.34845 0.81836,-0.59961 0.44489,-0.49342 0.92702,-1.06102 1.00586,-1.7207 0.0789,-0.65998 -0.14341,-1.40234 -0.57227,-1.91016 -0.42832,-0.50717 -1.12368,-0.8268 -1.78515,-0.88281 -0.55519,-0.047 -1.10288,0.23002 -1.60159,0.47848 z M 337.83398,20.580634 c -0.86266,0.30679 -1.59331,0.90258 -2.39453,1.3457 -0.0143,0.008 -0.0289,0.0151 -0.043,0.0234 -0.0146,0.009 -0.0286,0.0183 -0.043,0.0273 -0.88159,0.5511 -1.78119,1.07336 -2.65625,1.63476 -0.0138,0.009 -0.0272,0.0184 -0.041,0.0274 -0.0142,0.009 -0.0288,0.018 -0.043,0.0273 -0.86964,0.56853 -1.72254,1.16227 -2.58594,1.74023 -0.0136,0.009 -0.0275,0.018 -0.041,0.0273 -0.0138,0.01 -0.0274,0.0194 -0.041,0.0293 -0.27466,0.19884 -0.59341,0.34959 -0.82031,0.60157 -0.44436,0.49346 -0.92548,1.0613 -1.00391,1.7207 -0.0784,0.65941 0.14396,1.40074 0.57227,1.9082 0.42836,0.50752 1.12339,0.82882 1.78516,0.88477 0.55538,0.047 1.10257,-0.23217 1.60156,-0.48047 0.29402,-0.1463 0.52744,-0.39149 0.79492,-0.58203 0.008,-0.006 0.0169,-0.0118 0.0254,-0.0176 0.81376,-0.55531 1.62484,-1.11504 2.45313,-1.64844 0.84885,-0.54664 1.70814,-1.07749 2.57812,-1.58984 0.77537,-0.45663 1.67532,-0.73087 2.35352,-1.32227 0.5005,-0.43645 1.04619,-0.94263 1.20312,-1.58789 0.15707,-0.64585 0.0252,-1.40937 -0.33984,-1.96484 -0.36444,-0.55458 -1.01617,-0.95543 -1.66602,-1.08984 -0.54608,-0.11295 -1.123,0.0984 -1.6484,0.28529 z"
       inkscape:connector-curvature="0" />
    <path
       id="path4883"
       style="color:#000000;font-style:normal;font-variant:normal;font-weight:normal;font-stretch:normal;font-size:medium;line-height:normal;font-family:sans-serif;text-indent:0;text-align:start;text-decoration:none;text-decoration-line:none;text-decoration-style:solid;text-decoration-color:#000000;letter-spacing:normal;word-spacing:normal;text-transform:none;direction:ltr;block-progression:tb;writing-mode:lr-tb;baseline-shift:baseline;text-anchor:start;white-space:normal;clip-rule:nonzero;display:inline;overflow:visible;visibility:visible;opacity:1;isolation:auto;mix-blend-mode:normal;color-interpolation:sRGB;color-interpolation-filters:linearRGB;solid-color:#000000;solid-opacity:1;fill:#5599ff;fill-opacity:1;fill-rule:evenodd;stroke:#4d4d4d;stroke-width:0.5;stroke-linecap:round;stroke-linejoin:miter;stroke-miterlimit:4;stroke-dasharray:none;stroke-dashoffset:0;stroke-opacity:1;color-rendering:auto;image-rendering:auto;shape-rendering:auto;text-rendering:auto;enable-background:accumulate"
       d="m 334.35156,163.13923 c -0.30808,0.58878 -0.34281,1.35404 -0.14453,1.98828 0.1662,0.53161 0.62788,0.93605 1.04883,1.30078 0.0183,0.0159 0.042,0.0242 0.0625,0.0371 0.0139,0.009 0.0269,0.0189 0.041,0.0273 0.0145,0.009 0.0301,0.0154 0.0449,0.0234 0.91601,0.49561 1.82209,1.00954 2.72461,1.5293 0.0144,0.008 0.0284,0.0173 0.043,0.0254 0.0147,0.008 0.0299,0.0157 0.0449,0.0234 0.92684,0.4776 1.86027,0.94233 2.78711,1.41993 0.015,0.008 0.0297,0.016 0.0449,0.0234 0.0154,0.008 0.0313,0.0143 0.0469,0.0215 0.94942,0.43576 1.90192,0.8649 2.84766,1.30859 0.015,0.007 0.0298,0.0147 0.0449,0.0215 0.0155,0.007 0.0313,0.013 0.0469,0.0195 0.1659,0.0686 0.3216,0.17187 0.49804,0.20507 0.65336,0.12294 1.38966,0.23968 1.99414,-0.0371 0.60406,-0.27659 1.12037,-0.85397 1.33008,-1.48438 0.2096,-0.6301 0.12101,-1.39034 -0.17578,-1.98437 -0.2489,-0.49818 -0.77063,-0.82096 -1.24219,-1.11719 -0.13944,-0.0876 -0.30604,-0.1218 -0.45703,-0.1875 -0.92208,-0.40121 -1.83533,-0.82314 -2.74023,-1.26172 -0.91127,-0.44167 -1.81418,-0.9011 -2.70703,-1.37891 -0.88872,-0.4756 -1.7623,-0.97907 -2.63672,-1.48047 -0.008,-0.004 -0.0147,-0.0113 -0.0234,-0.0137 -0.001,-3.5e-4 -0.003,3.6e-4 -0.004,0 -0.007,-0.002 -0.0122,-0.0138 -0.0195,-0.0117 -0.003,8.3e-4 -10e-4,0.007 -0.004,0.008 -0.58014,0.30407 -1.31384,-0.4513 -1.94532,-0.27735 -0.64046,0.17643 -1.24265,0.66333 -1.55064,1.25194 z M 405.59961,17.342354 c -0.60405,0.27662 -1.12037,0.85397 -1.33008,1.48438 -0.2096,0.6301 -0.12101,1.39034 0.17578,1.98437 0.2489,0.49818 0.77068,0.82086 1.24219,1.11719 0.13348,0.0839 0.29293,0.1168 0.4375,0.17969 0.92909,0.40414 1.84975,0.82813 2.76172,1.26953 0.89683,0.43407 1.78238,0.89139 2.66406,1.35547 0.007,0.004 0.0144,0.008 0.0215,0.0117 0.88602,0.48968 1.78503,0.95779 2.64843,1.48633 0.01,0.006 0.0181,0.0161 0.0293,0.0195 0.002,5.8e-4 0.004,-5.3e-4 0.006,0 0.007,0.002 0.0122,0.0138 0.0195,0.0117 0.003,-8.3e-4 10e-4,-0.007 0.004,-0.008 0.58014,-0.30407 1.31383,0.45128 1.94531,0.27734 0.6405,-0.17642 1.24276,-0.66331 1.55078,-1.25195 0.30809,-0.58877 0.34281,-1.35404 0.14453,-1.98828 -0.1662,-0.53161 -0.63051,-0.93303 -1.04883,-1.30078 -0.0178,-0.0156 -0.0402,-0.0249 -0.0605,-0.0371 -0.0143,-0.009 -0.0287,-0.0169 -0.043,-0.0254 -0.0143,-0.008 -0.0286,-0.0171 -0.043,-0.0254 -0.90252,-0.51976 -1.81726,-1.01801 -2.72461,-1.5293 -0.015,-0.008 -0.0296,-0.0174 -0.0449,-0.0254 -0.0147,-0.008 -0.03,-0.0142 -0.0449,-0.0215 -0.93493,-0.46223 -1.86014,-0.94389 -2.78711,-1.42188 -0.015,-0.008 -0.0297,-0.0161 -0.0449,-0.0234 -0.0147,-0.007 -0.03,-0.0128 -0.0449,-0.0195 -0.95388,-0.42657 -1.89811,-0.87441 -2.84765,-1.31055 -0.0156,-0.007 -0.0312,-0.0145 -0.0469,-0.0215 -0.0149,-0.007 -0.0299,-0.0131 -0.0449,-0.0195 -0.16596,-0.0701 -0.32294,-0.1719 -0.5,-0.20508 -0.65354,-0.12248 -1.38987,-0.23953 -1.99442,0.0373 z"
       inkscape:connector-curvature="0" />
    <path
       id="path4881"
       style="color:#000000;font-style:normal;font-variant:normal;font-weight:normal;font-stretch:normal;font-size:medium;line-height:normal;font-family:sans-serif;text-indent:0;text-align:start;text-decoration:none;text-decoration-line:none;text-decoration-style:solid;text-decoration-color:#000000;letter-spacing:normal;word-spacing:normal;text-transform:none;direction:ltr;block-progression:tb;writing-mode:lr-tb;baseline-shift:baseline;text-anchor:start;white-space:normal;clip-rule:nonzero;display:inline;overflow:visible;visibility:visible;opacity:1;isolation:auto;mix-blend-mode:normal;color-interpolation:sRGB;color-interpolation-filters:linearRGB;solid-color:#000000;solid-opacity:1;fill:#0044aa;fill-opacity:1;fill-rule:evenodd;stroke:#4d4d4d;stroke-width:0.5;stroke-linecap:round;stroke-linejoin:miter;stroke-miterlimit:4;stroke-dasharray:none;stroke-dashoffset:0;stroke-opacity:1;color-rendering:auto;image-rendering:auto;shape-rendering:auto;text-rendering:auto;enable-background:accumulate"
       d="m 403.13672,167.50446 c -3.33228,2.09966 -14.19356,1.88827 -9.77149,7.58008 3.717,0.44811 7.26832,-1.68021 10.84199,-2.558 3.5543,-0.87968 2.59899,-6.02894 -1.0705,-5.02208 z M 356.36328,13.318914 c -3.52288,1.28347 -7.87338,1.47067 -10.53508,4.27539 0.26173,6.99986 8.42758,0.45343 12.40622,0.4238 3.67845,-1.1744 1.49438,-6.15928 -1.87114,-4.69919 z"
       inkscape:connector-curvature="0" />
    <path
       id="path4879"
       style="color:#000000;font-style:normal;font-variant:normal;font-weight:normal;font-stretch:normal;font-size:medium;line-height:normal;font-family:sans-serif;text-indent:0;text-align:start;text-decoration:none;text-decoration-line:none;text-decoration-style:solid;text-decoration-color:#000000;letter-spacing:normal;word-spacing:normal;text-transform:none;direction:ltr;block-progression:tb;writing-mode:lr-tb;baseline-shift:baseline;text-anchor:start;white-space:normal;clip-rule:nonzero;display:inline;overflow:visible;visibility:visible;opacity:1;isolation:auto;mix-blend-mode:normal;color-interpolation:sRGB;color-interpolation-filters:linearRGB;solid-color:#000000;solid-opacity:1;fill:#0066ff;fill-opacity:1;fill-rule:evenodd;stroke:#4d4d4d;stroke-width:0.5;stroke-linecap:round;stroke-linejoin:miter;stroke-miterlimit:4;stroke-dasharray:none;stroke-dashoffset:0;stroke-opacity:1;color-rendering:auto;image-rendering:auto;shape-rendering:auto;text-rendering:auto;enable-background:accumulate"
       d="m 353.59961,169.99665 c -0.56615,0.34781 -1.00897,0.98348 -1.14063,1.63476 -0.13164,0.6512 0.0489,1.39551 0.41602,1.94922 0.30771,0.46407 0.86523,0.72012 1.36914,0.95703 0.62764,0.29508 1.33768,0.36689 2.00586,0.55274 0.0163,0.005 0.0324,0.009 0.0488,0.0137 0.0162,0.004 0.0325,0.008 0.0488,0.0117 1.0323,0.24343 2.06623,0.47994 3.09961,0.71875 0.0169,0.004 0.0338,0.008 0.0508,0.0117 0.0169,0.004 0.0338,0.007 0.0508,0.01 1.04612,0.20185 2.0945,0.3919 3.14062,0.59375 0.017,0.003 0.0337,0.007 0.0508,0.01 0.0168,0.003 0.0339,0.004 0.0508,0.006 0.51013,0.0676 1.01366,0.25513 1.52734,0.22461 0.66325,-0.0394 1.40492,-0.10654 1.92383,-0.52149 0.51882,-0.41487 0.88121,-1.09934 0.93164,-1.76172 0.0504,-0.6625 -0.22156,-1.37864 -0.6543,-1.88281 -0.36267,-0.42254 -0.94736,-0.608 -1.47656,-0.78125 -0.47592,-0.15581 -0.99246,-0.13582 -1.48633,-0.21875 -1.01734,-0.17084 -2.03151,-0.36196 -3.04102,-0.57422 -1.00129,-0.21053 -1.99852,-0.44151 -2.99023,-0.69336 -0.654,-0.16609 -1.27783,-0.49546 -1.95117,-0.53906 -0.66334,-0.043 -1.40824,-0.0693 -1.97462,0.2787 z M 385.88477,12.250554 c -0.51877,0.41494 -0.88122,1.09934 -0.93165,1.76172 -0.0504,0.66251 0.22156,1.37864 0.6543,1.88282 0.36267,0.42253 0.94735,0.60804 1.47656,0.78124 0.47655,0.15597 0.99378,0.13576 1.48829,0.21876 1.01735,0.17075 2.03152,0.36187 3.04101,0.57421 0.98366,0.2069 1.9603,0.44613 2.9375,0.68164 0.003,6.4e-4 0.005,0.001 0.008,0.002 0.66683,0.17509 1.30612,0.50472 1.99414,0.54883 0.66339,0.0425 1.40826,0.0688 1.97461,-0.2793 0.5661,-0.3479 1.00897,-0.98349 1.14063,-1.63477 0.13164,-0.6512 -0.0489,-1.39551 -0.41602,-1.94922 -0.30771,-0.46407 -0.86515,-0.72029 -1.36914,-0.95703 -0.62701,-0.29453 -1.33644,-0.36536 -2.0039,-0.55078 -0.0163,-0.005 -0.0324,-0.01 -0.0488,-0.0137 -0.0168,-0.004 -0.0339,-0.008 -0.0508,-0.0117 -1.03345,-0.23916 -2.06724,-0.47692 -3.09961,-0.7207 -0.0163,-0.004 -0.0324,-0.008 -0.0488,-0.0117 -0.0168,-0.003 -0.0339,-0.005 -0.0508,-0.008 -1.04979,-0.18185 -2.0945,-0.3919 -3.14063,-0.59375 -0.017,-0.003 -0.0338,-0.007 -0.0508,-0.01 -0.0169,-0.003 -0.0339,-0.005 -0.0508,-0.008 -0.50937,-0.0775 -1.01498,-0.25528 -1.5293,-0.22461 -0.66334,0.0396 -1.40505,0.10696 -1.92399,0.52204 z"
       inkscape:connector-curvature="0" />
    <path
       id="path4136"
       style="color:#000000;font-style:normal;font-variant:normal;font-weight:normal;font-stretch:normal;font-size:medium;line-height:normal;font-family:sans-serif;text-indent:0;text-align:start;text-decoration:none;text-decoration-line:none;text-decoration-style:solid;text-decoration-color:#000000;letter-spacing:normal;word-spacing:normal;text-transform:none;direction:ltr;block-progression:tb;writing-mode:lr-tb;baseline-shift:baseline;text-anchor:start;white-space:normal;clip-rule:nonzero;display:inline;overflow:visible;visibility:visible;opacity:1;isolation:auto;mix-blend-mode:normal;color-interpolation:sRGB;color-interpolation-filters:linearRGB;solid-color:#000000;solid-opacity:1;fill:#0055d4;fill-opacity:1;fill-rule:evenodd;stroke:#4d4d4d;stroke-width:0.5;stroke-linecap:round;stroke-linejoin:miter;stroke-miterlimit:4;stroke-dasharray:none;stroke-dashoffset:0;stroke-opacity:1;color-rendering:auto;image-rendering:auto;shape-rendering:auto;text-rendering:auto;enable-background:accumulate"
       d="m 382.38867,172.29548 c -1.05629,0.0899 -2.11468,0.15809 -3.17383,0.20312 -1.05006,0.0446 -2.10133,0.0658 -3.15234,0.0664 -0.45712,2.6e-4 -0.92172,-0.11111 -1.37109,-0.0273 -0.65356,0.12189 -1.38198,0.27947 -1.84571,0.75586 -0.46321,0.47585 -0.73716,1.19998 -0.70508,1.86328 0.0321,0.66423 0.39025,1.34229 0.88282,1.78907 0.41236,0.37401 1.01596,0.48393 1.5625,0.58984 0.46669,0.0904 0.95043,0.026 1.42578,0.0312 0.0182,2e-4 0.0365,0 0.0547,0 0.0176,0 0.0351,1.9e-4 0.0527,0 1.09069,-0.0121 2.18124,-0.0388 3.27148,-0.0723 0.0169,-5.2e-4 0.0339,-0.001 0.0508,-0.002 0.0176,-6.8e-4 0.0351,-0.001 0.0527,-0.002 1.08153,-0.055 2.162,-0.13002 3.24219,-0.20703 0.0169,-0.001 0.0339,-0.002 0.0508,-0.004 0.0176,-0.002 0.0351,-0.004 0.0527,-0.006 0.68003,-0.0745 1.38956,-0.006 2.04102,-0.21484 0.63273,-0.20277 1.33443,-0.45184 1.73437,-0.98242 0.39987,-0.53048 0.58182,-1.28322 0.4668,-1.9375 -0.11502,-0.65427 -0.55554,-1.28094 -1.09961,-1.66211 -0.45627,-0.31965 -1.06908,-0.35445 -1.625,-0.39063 -0.65854,-0.0428 -1.31114,0.15338 -1.9687,0.20936 z M 372.73828,10.924384 c -0.0169,5.2e-4 -0.0339,10e-4 -0.0508,0.002 -0.0176,6.8e-4 -0.0351,10e-4 -0.0527,0.002 -1.08153,0.055 -2.16189,0.13154 -3.24219,0.20703 -0.0176,10e-4 -0.0351,0.003 -0.0527,0.004 -0.0169,10e-4 -0.0339,0.002 -0.0508,0.004 -0.68191,0.063 -1.39091,0.008 -2.04297,0.2168 -0.63265,0.20304 -1.33443,0.45184 -1.73437,0.98242 -0.39987,0.53048 -0.58182,1.28322 -0.4668,1.9375 0.11502,0.65427 0.55554,1.28094 1.09961,1.66211 0.45627,0.31965 1.06908,0.35437 1.625,0.39063 0.65918,0.043 1.31249,-0.15305 1.9707,-0.20899 1.0563,-0.0898 2.11468,-0.15809 3.17383,-0.20312 1.05007,-0.0446 2.10133,-0.0658 3.15235,-0.0664 0.45647,-2.6e-4 0.92041,0.11099 1.36914,0.0273 0.65356,-0.12188 1.38197,-0.27947 1.8457,-0.75586 0.4632,-0.47585 0.73715,-1.19998 0.70508,-1.86328 -0.0321,-0.66423 -0.39024,-1.34229 -0.88281,-1.78906 -0.41236,-0.37402 -1.01596,-0.48392 -1.5625,-0.58984 -0.46605,-0.0903 -0.94913,-0.026 -1.42383,-0.0312 -0.0182,-2e-4 -0.0365,0 -0.0547,0 -0.0176,0 -0.0351,-1.9e-4 -0.0527,0 -1.09071,0.012 -2.18128,0.0385 -3.27154,0.072 z"
       inkscape:connector-curvature="0" />
    <path
       id="path4797"
       style="fill:#000000;fill-opacity:1;fill-rule:evenodd;stroke:#4d4d4d;stroke-width:0.5;stroke-linejoin:round;stroke-miterlimit:4;stroke-dasharray:none;stroke-opacity:1"
       d="m 442.67115,125.50349 10.15016,-14.2087 1.47298,17.39952 c -2.73802,-3.46677 -7.43642,-4.74094 -11.62314,-3.19082 z m -133.21733,-62.587896 -10.15016,14.2087 -1.47298,-17.39952 c 2.73802,3.46677 7.43642,4.74094 11.62314,3.19082 z"
       inkscape:connector-curvature="0" />
    <text
       xml:space="preserve"
       style="font-style:normal;font-weight:normal;font-size:22.5px;line-height:125%;font-family:sans-serif;letter-spacing:0px;word-spacing:0px;fill:#333333;fill-opacity:1;stroke:#1a1a1a;stroke-width:0.5;stroke-linecap:butt;stroke-linejoin:miter;stroke-miterlimit:4;stroke-dasharray:none;stroke-opacity:1"
       x="374.24472"
       y="109.12394"
       id="text4140"
       sodipodi:linespacing="125%"><tspan
         sodipodi:role="line"
         id="tspan4142"
         x="374.24472"
         y="109.12394"
         style="font-style:normal;font-variant:normal;font-weight:normal;font-stretch:normal;font-size:50px;font-family:UnDinaru;-inkscape-font-specification:UnDinaru;text-align:center;text-anchor:middle;fill:#333333;stroke:#1a1a1a;stroke-width:0.5;stroke-miterlimit:4;stroke-dasharray:none;stroke-opacity:1">NanoCount</tspan></text>
    <path
       style="fill:none;stroke:#808080;stroke-width:0.96788406;stroke-linecap:square;stroke-linejoin:round"
       d="m 313.23764,129.34868 0.75253,-0.47465 0.7528,-2.76786 1.50507,6.72208 0.75279,-4.03319 0.75254,0.55362 0.75253,5.14031 0.75253,-5.45661 0.75279,-2.37245 0.75266,7.03825 0.75253,-3.71689 0.75254,-1.02802 0.75267,0.5535 0.75253,1.73985 1.50546,-2.45156 0.75253,2.53067 0.75253,-1.58177 0.75254,-0.15808 0.75253,-0.3163 0.75279,-1.26535 0.75254,1.26535 0.75253,-2.60965 0.75279,2.68875 0.75254,1.02801 0.75253,-0.55349 0.75267,0.55349 0.75253,-1.10711 0.75253,0.71171 0.75279,0.47451 0.75254,1.66061 0.75266,-2.13512 0.75266,-1.81884 0.75254,2.84684 0.75253,5.45676 0.75253,1.58176 0.75279,-0.71184 0.75267,-1.26521 0.75254,-0.39553 0.75253,1.81882 0.75266,0.23733 0.75253,-0.31616 0.75267,-0.71185 0.75253,3.4006 0.75279,-1.97705 0.75254,-1.50279 0.75253,0.23732 0.75267,2.4517 0.75265,-2.8471 0.75254,2.60977 0.75253,-0.55362 0.75279,0.94917 0.75254,0.55335 0.75266,0.47465 0.75254,-3.63792 0.75253,2.13526 0.75279,-1.58149 0.75241,1.42328 0.75266,-0.79069 0.75279,1.73986 0.75253,-1.18636 0.75254,0.87006 0.75253,-3.16341 0.75279,1.81896 0.75254,-1.18623 0.75266,0.94891 0.75254,1.66087 0.75266,0.63247 0.75254,-2.92608 0.75265,1.66088 1.50533,-2.76799 0.75253,1.50266 0.75254,0.23719 0.75253,-0.23719 0.7528,0.55349 0.75253,1.50252 0.75254,-1.97704 0.75279,-1.26533 0.75253,1.028 0.75254,1.8191 0.75265,0.79082 0.75254,-1.97705 0.75253,1.2652 0.75267,-1.81882 0.75266,0.55362 0.75254,0.39528 0.75279,0.71184 0.75253,-0.71184 0.75254,1.34444 0.75253,-1.66074 0.75266,0.94903 0.75267,-1.10712 0.75253,0.9489 0.75266,0.0793 0.75266,-0.94891 0.75254,1.10725 0.75267,-0.31643 0.75253,0.15809 0.75279,0.39554 0.75253,-0.71172 0.75254,-0.47452 0.75265,1.10713 0.75267,3.00505 0.75266,-3.95408 0.75241,0.79094 0.75279,0.0793 0.75253,6.88017 0.75267,-2.92607 0.75254,1.18622 0.75253,-0.3163 0.75266,1.34444 0.75253,-1.34444 0.75267,1.18623 0.75279,0.15821 0.75253,-2.8471 0.75254,1.42369 0.75253,-2.84712 0.75253,1.97706 0.75279,1.50252 0.75254,1.10725 0.75266,-12.73233 0.75266,-2.76799 0.75254,-0.39541 0.75266,-4.19129 0.75254,0.2372 0.75253,-0.79096 0.75266,0 0.75266,8.06641 0.75254,-5.93101 0.75279,-0.39528 0.75253,2.53041 0.75254,-3.16327 0.75279,4.90326 0.75227,-3.4006 0.75267,1.66061 0.75279,-3.71677 0.75254,0.39528 0.75266,-1.34431 0.75254,-1.10712 0.75253,1.97705 0.75266,-1.42356 0.75279,1.10712 0.75253,5.06135 0.75254,-3.63792 0.75253,2.68888 0.75267,-4.9821 0.75279,-0.47465 0.75253,1.26533 0.75267,-2.05615 0.75253,2.92608 0.75254,-1.81883 0.75265,2.45144 0.75254,-2.60965 0.75253,2.92621 0.75279,-3.7169 0.75241,0.47439 0.75279,1.73985 0.75266,0.23732 0.75253,5.85203 0.75255,-6.64298 0.75253,1.10712 0.75253,0.94917 0.75292,0.0793 0.75253,-1.58163 0.75254,3.24237 0.75266,0.31644"
       id="path47992"
       inkscape:connector-curvature="0" />
  </g>
</svg>
